<svg aria-hidden="true" style="position: absolute; width: 0; height: 0; overflow: hidden;" version="1.1" xmlns="http://www.w3.org/2000/svg" xmlns:xlink="http://www.w3.org/1999/xlink">
<linearGradient id="sassGradient" gradientTransform="rotate(0)">
  <stop offset="0%" stop-color="rgb(200, 34, 255)" />
  <stop offset="100%" stop-color="rgb(26, 109, 255)" />
</linearGradient>
<defs>
<symbol id="icon-telegram" viewBox="0 0 32 32">
<path d="M22.122 10.040c0.006 0 0.014 0 0.022 0 0.209 0 0.403 0.065 0.562 0.177l-0.003-0.002c0.116 0.101 0.194 0.243 0.213 0.403v0.003c0.020 0.122 0.031 0.262 0.031 0.405 0 0.065-0.002 0.129-0.007 0.193v-0.009c-0.225 2.369-1.201 8.114-1.697 10.766-0.21 1.123-0.623 1.499-1.023 1.535-0.869 0.081-1.529-0.574-2.371-1.126-1.318-0.865-2.063-1.403-3.342-2.246-1.479-0.973-0.52-1.51 0.322-2.384 0.221-0.23 4.052-3.715 4.127-4.031 0.004-0.019 0.006-0.040 0.006-0.062 0-0.078-0.029-0.149-0.076-0.203v0c-0.052-0.034-0.117-0.053-0.185-0.053-0.045 0-0.088 0.009-0.128 0.024l0.002-0.001q-0.198 0.045-6.316 4.174c-0.445 0.351-1.007 0.573-1.619 0.599h-0.006c-0.867-0.105-1.654-0.298-2.401-0.573l0.074 0.024c-0.938-0.306-1.683-0.467-1.619-0.985q0.051-0.404 1.114-0.827 6.548-2.853 8.733-3.761c1.607-0.853 3.47-1.555 5.429-2.010l0.157-0.031zM15.93 1.025c-8.302 0.020-15.025 6.755-15.025 15.060 0 8.317 6.742 15.060 15.060 15.060s15.060-6.742 15.060-15.060c0-8.305-6.723-15.040-15.023-15.060h-0.002q-0.035 0-0.070 0z"></path>
</symbol>
<symbol id="icon-location" viewBox="0 0 32 32">
<path d="M15.999 0c-6.123 0-11.105 4.982-11.105 11.105 0 5.894 10.075 19.665 10.504 20.248l0.4 0.545c0.047 0.064 0.121 0.101 0.2 0.101 0.080 0 0.154-0.037 0.201-0.102l0.4-0.545c0.429-0.583 10.504-14.354 10.504-20.248 0-6.123-4.982-11.105-11.105-11.105zM15.999 7.127c2.194 0 3.978 1.784 3.978 3.978 0 2.193-1.784 3.978-3.978 3.978-2.193 0-3.978-1.785-3.978-3.978 0-2.194 1.785-3.978 3.978-3.978z"></path>
</symbol>
<symbol id="icon-contact" viewBox="0 0 32 32">
<path d="M15.375 0.028c-1.543 0.145-2.957 0.797-4.060 1.873-0.602 0.588-1.015 1.15-1.365 1.863-0.518 1.055-0.725 2.013-0.693 3.2 0.020 0.728 0.115 1.275 0.33 1.925 0.728 2.185 2.527 3.857 4.755 4.423 1.84 0.467 3.82 0.127 5.39-0.92 0.418-0.28 0.668-0.485 1.055-0.875 1.277-1.283 1.965-2.947 1.962-4.753-0.003-1.098-0.215-2.013-0.7-3.002-0.875-1.78-2.538-3.112-4.463-3.57-0.705-0.17-1.517-0.23-2.213-0.163z"></path>
<path d="M15.262 14.152c-0.857 0.068-1.68 0.235-2.5 0.51-2.62 0.875-4.98 2.855-6.633 5.568-1.492 2.45-2.34 5.285-2.505 8.383-0.040 0.745-0.033 1.055 0.022 1.18 0.393 0.86 3.112 1.615 7.14 1.98 1.793 0.163 3.035 0.215 5.213 0.212 1.662 0 2.228-0.012 3.513-0.085 1.753-0.1 3.532-0.297 4.925-0.55 2.25-0.407 3.642-0.962 3.915-1.558 0.055-0.125 0.063-0.435 0.023-1.18-0.188-3.497-1.262-6.705-3.115-9.305-2.367-3.317-5.77-5.207-9.32-5.18-0.235 0.002-0.54 0.012-0.678 0.025z"></path>
</symbol>
<symbol id="icon-handlebars" viewBox="0 0 32 32">
<path d="M11.777 12.125c1.112-0.005 2.253 0.314 3.118 1.034 0.443 0.359 0.801 0.809 1.105 1.288 0.547-0.884 1.346-1.635 2.331-1.997 1.2-0.451 2.557-0.419 3.755 0.022 1.047 0.382 1.962 1.048 2.792 1.78 0.649 0.573 1.25 1.2 1.919 1.752 0.352 0.286 0.731 0.554 1.164 0.702 0.576 0.197 1.257 0.011 1.669-0.433 0.381-0.415 0.358-1.133-0.062-1.513-0.267-0.231-0.724-0.184-0.913 0.123-0.165 0.244-0.073 0.548 0.057 0.784-0.344-0.251-0.689-0.602-0.687-1.058-0.071-0.528 0.32-0.994 0.79-1.179 0.916-0.366 2.064-0.051 2.642 0.756 0.556 0.752 0.6 1.742 0.503 2.638-0.117 0.851-0.593 1.646-1.299 2.139-0.991 0.707-2.248 0.927-3.443 0.912-1.149-0.031-2.287-0.291-3.351-0.72-1.78-0.716-3.447-1.705-5.285-2.277-0.61-0.237-1.259-0.365-1.911-0.404-0.519-0.003-1.011-0.028-1.502 0.006-0.598 0.057-1.193 0.18-1.753 0.399-1.87 0.581-3.561 1.596-5.375 2.313-1.532 0.596-3.229 0.873-4.855 0.542-0.91-0.184-1.815-0.586-2.429-1.303-0.525-0.609-0.777-1.425-0.752-2.224-0.029-0.754 0.136-1.555 0.635-2.142 0.464-0.557 1.211-0.839 1.928-0.777 0.462 0.021 0.93 0.223 1.215 0.595 0.224 0.294 0.238 0.697 0.14 1.041-0.12 0.309-0.367 0.551-0.635 0.737 0.137-0.231 0.22-0.537 0.058-0.778-0.199-0.322-0.69-0.354-0.95-0.090-0.32 0.329-0.387 0.866-0.172 1.269 0.233 0.422 0.714 0.663 1.18 0.712 0.705 0.061 1.316-0.376 1.833-0.8 1.070-0.921 2.034-1.976 3.221-2.755 0.979-0.656 2.132-1.1 3.322-1.094v0 0z" fill="rgb(45, 42, 34)"></path>
</symbol>
<symbol id="icon-gitHub" viewBox="0 0 32 32">
<path fill="#fff" style="fill: var(--color1, #fff)" d="M15.931 0.797c-3.761 0-7.401 1.339-10.264 3.774-2.862 2.429-4.762 5.801-5.368 9.505-0.599 3.704 0.134 7.503 2.085 10.716 1.944 3.213 4.966 5.629 8.536 6.815 0.784 0.147 1.084-0.344 1.084-0.759s-0.019-1.626-0.025-2.945c-4.405 0.956-5.336-1.861-5.336-1.861-0.714-1.836-1.753-2.314-1.753-2.314-1.441-0.982 0.108-0.963 0.108-0.963 1.587 0.115 2.422 1.632 2.422 1.632 1.415 2.416 3.71 1.715 4.609 1.307 0.147-1.026 0.555-1.721 1.007-2.116-3.519-0.395-7.216-1.753-7.216-7.809-0.019-1.575 0.561-3.092 1.632-4.246-0.166-0.395-0.708-2.002 0.153-4.188 0 0 1.332-0.421 4.36 1.619 2.595-0.708 5.329-0.708 7.931 0 3.022-2.040 4.348-1.619 4.348-1.619 0.867 2.18 0.319 3.787 0.159 4.188 1.071 1.154 1.657 2.678 1.632 4.252 0 6.069-3.704 7.408-7.229 7.797 0.567 0.491 1.071 1.454 1.071 2.933 0 2.11-0.019 3.812-0.019 4.335 0 0.421 0.287 0.912 1.090 0.759 3.57-1.186 6.592-3.608 8.536-6.815 1.951-3.213 2.684-7.012 2.085-10.716-0.606-3.71-2.512-7.076-5.374-9.511-2.862-2.429-6.503-3.768-10.264-3.768v0z"></path>
</symbol>
<symbol id="icon-bootstrap" viewBox="0 0 32 32">
<path fill="#673ab7" style="fill: var(--color2, #673ab7)" d="M28 24.667c0 1.841-1.492 3.333-3.333 3.333h-17.333c-1.841 0-3.333-1.492-3.333-3.333v-17.333c0-1.841 1.493-3.333 3.333-3.333h17.333c1.841 0 3.333 1.492 3.333 3.333v17.333z"></path>
<path fill="#fff" style="fill: var(--color1, #fff)" d="M22.020 17.067c-0.433-0.6-1.060-1.013-1.867-1.233 0 0 0.68-0.247 1.293-1.167 0.367-0.587 0.553-1.293 0.553-2.12 0-1.433-0.52-2.533-1.56-3.287s-2.213-1.26-4.207-1.26h-6.233v16h6.953c1.887-0.013 3.307-0.42 4.273-1.2 0.96-0.793 1.44-1.967 1.44-3.533 0-0.867-0.213-1.6-0.647-2.2zM14 10.667c0 0 2.78 0 2.833 0 1.013 0 1.833 0.82 1.833 1.833s-0.82 1.833-1.833 1.833c-0.053 0-2.833 0-2.833 0v-3.667zM17.333 21.333h-3.333v-4h3.333c1.107 0 2 0.893 2 2s-0.893 2-2 2z"></path>
</symbol>
<symbol id="icon-css" viewBox="0 0 32 32">
<path fill="#0277bd" style="fill: var(--color3, #0277bd)" d="M27.333 3.333h-22.667l2 22.667 9.333 2.667 9.333-2.667 2-22.667z"></path>
<path fill="#039be5" style="fill: var(--color4, #039be5)" d="M16 5.333v21.267l7.467-2.133 1.667-19.133z"></path>
<path fill="#fff" style="fill: var(--color1, #fff)" d="M22.067 8.667h-6.067v2.667h3.267l-0.2 2.667h-3.067v2.667h2.933l-0.2 3-2.733 0.933v2.8l5.267-1.733 0.467-7.667z"></path>
<path fill="#eee" style="fill: var(--color5, #eee)" d="M16 8.667v2.667h-5.933l-0.2-2.667h6.133zM12.933 14l0.133 2.667h2.933v-2.667h-3.067zM13.2 18h-2.667l0.2 3.667 5.267 1.733v-2.8l-2.733-0.933-0.067-1.667z"></path>
</symbol>
<symbol id="icon-html" viewBox="0 0 32 32">
<path fill="#e65100" style="fill: var(--color6, #e65100)" d="M27.333 3.333h-22.667l2 22.667 9.333 2.667 9.333-2.667 2-22.667z"></path>
<path fill="#ff6d00" style="fill: var(--color7, #ff6d00)" d="M16 5.333v21.267l7.467-2.133 1.667-19.133z"></path>
<path fill="#fff" style="fill: var(--color1, #fff)" d="M16 16.667v-2.667h5.733l-0.467 7.667-5.267 1.733v-2.8l2.733-0.933 0.2-3h-2.933zM21.933 11.333l0.2-2.667h-6.133v2.667h5.933z"></path>
<path fill="#eee" style="fill: var(--color5, #eee)" d="M16 20.6v2.8l-5.267-1.733-0.267-3.667h2.667l0.133 1.667 2.733 0.933zM12.733 11.333h3.267v-2.667h-6.067l0.467 8h5.6v-2.667h-3.067l-0.2-2.667z"></path>
</symbol>
<symbol id="icon-javascript" viewBox="0 0 32 32">
<path fill="#ffd600" style="fill: var(--color8, #ffd600)" d="M4 28v-24h24v24h-24z"></path>
<path fill="#000001" style="fill: var(--color9, #000001)" d="M19.692 21.965c0.461 0.749 0.963 1.467 2.025 1.467 0.892 0 1.36-0.443 1.36-1.057 0-0.734-0.484-0.995-1.465-1.422l-0.538-0.229c-1.553-0.659-2.585-1.484-2.585-3.227 0-1.607 1.23-2.829 3.152-2.829 1.369 0 2.352 0.474 3.061 1.715l-1.676 1.071c-0.369-0.659-0.767-0.918-1.385-0.918-0.631 0-1.030 0.398-1.030 0.918 0 0.643 0.4 0.903 1.323 1.301l0.538 0.229c1.83 0.779 2.862 1.575 2.862 3.365 0 1.928-1.523 2.985-3.567 2.985-1.999 0-3.135-1.003-3.767-2.245l1.692-1.123zM11.968 22.019c0.337 0.604 0.85 1.069 1.587 1.069 0.705 0 1.111-0.279 1.111-1.362v-7.059h2.222v7.401c0 2.245-1.302 3.266-3.203 3.266-1.718 0-2.958-1.164-3.463-2.245l1.746-1.069z"></path>
</symbol>
<symbol id="icon-nodejs" viewBox="0 0 32 32">
<path fill="#388e3c" style="fill: var(--color10, #388e3c)" d="M11.469 12.748l-3.271 1.81c-0.123 0.067-0.198 0.193-0.198 0.328v3.622c0 0.135 0.075 0.26 0.198 0.328l3.272 1.811c0.122 0.067 0.273 0.067 0.395 0l3.271-1.811c0.121-0.068 0.197-0.193 0.197-0.328v-3.622c0-0.135-0.075-0.26-0.198-0.328l-3.271-1.81c-0.061-0.034-0.13-0.051-0.198-0.051s-0.137 0.017-0.198 0.051zM28.301 16.009l-0.545 0.301c-0.021 0.011-0.033 0.032-0.033 0.055v0.604c0 0.023 0.013 0.043 0.033 0.055l0.545 0.302c0.021 0.011 0.045 0.011 0.066 0l0.545-0.302c0.020-0.011 0.033-0.032 0.033-0.055v-0.604c0-0.023-0.013-0.043-0.033-0.055l-0.545-0.301c-0.010-0.006-0.021-0.009-0.033-0.009s-0.023 0.003-0.033 0.009z"></path>
<path fill="#37474f" style="fill: var(--color11, #37474f)" d="M23.834 8.909l-1.593-0.889c-0.050-0.028-0.111-0.027-0.161 0.002s-0.080 0.082-0.080 0.139l-0.001 5.368-1.469-0.813c-0.061-0.034-0.13-0.051-0.198-0.051s-0.137 0.017-0.198 0.051h0.001l-3.271 1.81c-0.123 0.067-0.198 0.193-0.198 0.327v3.622c0 0.135 0.075 0.26 0.198 0.328l3.272 1.811c0.122 0.067 0.273 0.067 0.395 0l3.271-1.811c0.121-0.067 0.197-0.193 0.197-0.328v-9.285c0-0.117-0.064-0.225-0.166-0.283zM21.911 17.639l-1.487 0.823c-0.055 0.031-0.124 0.031-0.179 0l-1.487-0.823c-0.057-0.031-0.091-0.088-0.091-0.149v-1.647c0-0.061 0.034-0.118 0.090-0.149l1.487-0.823c0.028-0.015 0.059-0.023 0.090-0.023s0.062 0.008 0.090 0.023l1.487 0.823c0.056 0.031 0.090 0.089 0.090 0.15v1.647c0 0.061-0.034 0.118-0.089 0.149z"></path>
<path fill="#2e7d32" style="fill: var(--color12, #2e7d32)" d="M11.469 12.748l-3.469 5.76c0 0.135 0.075 0.26 0.198 0.328l3.272 1.811c0.122 0.067 0.273 0.067 0.395 0l3.468-5.761c0-0.135-0.075-0.26-0.198-0.328l-3.271-1.81c-0.061-0.034-0.13-0.051-0.198-0.051s-0.137 0.017-0.198 0.051z"></path>
<path fill="#4caf50" style="fill: var(--color13, #4caf50)" d="M11.469 12.748l-3.271 1.81c-0.123 0.067-0.198 0.193-0.198 0.328l3.469 5.761c0.122 0.067 0.273 0.067 0.395 0l3.271-1.811c0.122-0.068 0.197-0.193 0.197-0.328l-3.469-5.76c-0.061-0.034-0.13-0.051-0.198-0.051s-0.137 0.017-0.198 0.051z"></path>
<path fill="#37474f" style="fill: var(--color11, #37474f)" d="M31.802 14.527l-3.271-1.81c-0.061-0.034-0.13-0.051-0.198-0.051s-0.137 0.017-0.198 0.051h0.001l-3.271 1.81c-0.122 0.067-0.198 0.195-0.198 0.335v3.607c0 0.139 0.076 0.268 0.198 0.335l3.272 1.811c0.123 0.068 0.273 0.068 0.395 0l1.509-0.835c0.138-0.077 0.137-0.275-0.001-0.351l-3.283-1.791c-0.055-0.031-0.090-0.089-0.090-0.152v-1.644c0-0.061 0.033-0.118 0.087-0.147l1.489-0.824c0.028-0.015 0.059-0.023 0.090-0.023s0.062 0.008 0.090 0.023l1.49 0.825c0.053 0.029 0.087 0.086 0.087 0.147v1.341c0 0.057 0.031 0.111 0.081 0.139s0.111 0.028 0.161-0.001l1.599-0.929c0.099-0.057 0.16-0.163 0.16-0.278v-1.253c0-0.141-0.076-0.269-0.198-0.337zM7.135 14.527l-3.271-1.81c-0.061-0.034-0.13-0.051-0.198-0.051s-0.137 0.017-0.198 0.051h0.001l-3.271 1.81c-0.122 0.067-0.198 0.195-0.198 0.335v4.977c0 0.057 0.031 0.111 0.081 0.139s0.111 0.028 0.161-0.001l1.599-0.929c0.099-0.057 0.159-0.163 0.159-0.278v-2.929c0-0.061 0.033-0.118 0.087-0.147l1.49-0.824c0.028-0.015 0.059-0.023 0.090-0.023s0.062 0.008 0.090 0.023l1.49 0.825c0.053 0.029 0.087 0.086 0.087 0.147v2.929c0 0.115 0.061 0.221 0.16 0.278l1.599 0.929c0.050 0.029 0.111 0.029 0.161 0.001 0.049-0.029 0.080-0.083 0.080-0.14v-4.976c0-0.14-0.076-0.269-0.198-0.336z"></path>
</symbol>
<symbol id="icon-react-native" viewBox="0 0 32 32">
<path fill="#80deea" style="fill: var(--color14, #80deea)" d="M16 22.667c-8.6 0-15.333-2.933-15.333-6.667s6.733-6.667 15.333-6.667c8.6 0 15.333 2.933 15.333 6.667s-6.733 6.667-15.333 6.667zM16 10.667c-8.4 0-14 2.733-14 5.333s5.6 5.333 14 5.333 14-2.733 14-5.333c0-2.6-5.6-5.333-14-5.333z"></path>
<path fill="#80deea" style="fill: var(--color14, #80deea)" d="M10.067 29.733c-0.667 0-1.2-0.133-1.733-0.467-3.267-1.867-2.4-9.133 1.867-16.6v0c2-3.467 4.467-6.4 6.867-8.267 2.6-2 4.933-2.6 6.533-1.667 1.667 0.933 2.267 3.267 1.867 6.533-0.4 3.067-1.733 6.667-3.733 10.133s-4.467 6.4-6.867 8.267c-1.733 1.333-3.4 2.067-4.8 2.067zM21.933 3.6c-1.067 0-2.467 0.6-4 1.8-2.267 1.8-4.6 4.6-6.533 7.933v0c-4.2 7.267-4.6 13.533-2.4 14.8 1.133 0.667 3 0.067 5.067-1.533 2.267-1.8 4.6-4.6 6.533-7.933s3.2-6.733 3.6-9.6c0.333-2.667-0.067-4.533-1.2-5.2-0.333-0.133-0.667-0.267-1.067-0.267z"></path>
<path fill="#80deea" style="fill: var(--color14, #80deea)" d="M22 29.733c-3.333 0-8.133-4.067-11.733-10.4-4.333-7.467-5.2-14.733-1.933-16.6v0c3.267-1.867 9.133 2.467 13.467 9.933 2 3.467 3.333 7.067 3.733 10.133 0.467 3.267-0.2 5.533-1.867 6.533-0.533 0.267-1.067 0.4-1.667 0.4zM9 3.867c-2.2 1.267-1.8 7.533 2.4 14.8s9.4 10.733 11.6 9.467c1.133-0.667 1.533-2.533 1.2-5.2-0.4-2.867-1.667-6.267-3.6-9.6-4.2-7.267-9.4-10.733-11.6-9.467v0z"></path>
<path fill="#80deea" style="fill: var(--color14, #80deea)" d="M18.667 16c0 1.473-1.194 2.667-2.667 2.667s-2.667-1.194-2.667-2.667c0-1.473 1.194-2.667 2.667-2.667s2.667 1.194 2.667 2.667z"></path>
</symbol>
<symbol id="icon-sass" viewBox="0 0 32 32">

<path d="M25.962 17.495c-0.933 0.005-1.741 0.229-2.417 0.563-0.247-0.494-0.498-0.929-0.541-1.252-0.049-0.377-0.106-0.603-0.047-1.052s0.32-1.086 0.316-1.134-0.058-0.277-0.596-0.281c-0.538-0.004-0.998 0.104-1.052 0.245s-0.157 0.461-0.222 0.795c-0.094 0.488-1.074 2.227-1.63 3.137-0.182-0.355-0.337-0.669-0.369-0.916-0.049-0.377-0.106-0.603-0.047-1.052s0.32-1.086 0.316-1.134-0.058-0.277-0.596-0.281c-0.538-0.004-0.998 0.104-1.052 0.245s-0.112 0.473-0.222 0.795c-0.11 0.321-1.413 3.223-1.753 3.975-0.174 0.383-0.325 0.692-0.432 0.901-0.001-0-0.001-0.001-0.001-0.001s-0.007 0.014-0.018 0.038c-0.091 0.179-0.146 0.277-0.146 0.277s0.001 0.001 0.002 0.003c-0.073 0.131-0.15 0.253-0.188 0.253-0.027 0-0.081-0.35 0.011-0.83 0.194-1.006 0.659-2.576 0.655-2.631-0.002-0.028 0.087-0.302-0.304-0.445-0.38-0.139-0.515 0.093-0.55 0.093s-0.058 0.082-0.058 0.082 0.422-1.765-0.806-1.765c-0.769 0-1.834 0.841-2.358 1.604-0.331 0.18-1.040 0.567-1.791 0.98-0.288 0.159-0.584 0.321-0.863 0.475-0.019-0.021-0.038-0.042-0.057-0.063-1.491-1.59-4.247-2.715-4.13-4.854 0.043-0.777 0.313-2.825 5.295-5.307 4.082-2.034 7.349-1.474 7.914-0.234 0.806 1.773-1.747 5.066-5.985 5.541-1.615 0.181-2.466-0.445-2.678-0.678-0.223-0.245-0.256-0.257-0.339-0.21-0.135 0.075-0.050 0.291 0 0.421 0.127 0.329 0.646 0.913 1.531 1.204 0.779 0.256 2.675 0.396 4.968-0.491 2.568-0.994 4.574-3.758 3.984-6.067-0.599-2.349-4.495-3.122-8.181-1.812-2.197 0.78-4.572 2.003-6.28 3.601-2.031 1.899-2.354 3.553-2.221 4.243 0.474 2.454 3.857 4.053 5.212 5.238-0.066 0.037-0.13 0.072-0.187 0.103-0.679 0.336-3.258 1.686-3.904 3.111-0.732 1.617 0.117 2.778 0.678 2.934 1.74 0.484 3.525-0.387 4.485-1.818s0.842-3.294 0.402-4.144c-0.005-0.011-0.011-0.020-0.017-0.032 0.175-0.104 0.354-0.209 0.531-0.314 0.345-0.203 0.685-0.392 0.979-0.552-0.165 0.451-0.286 0.992-0.348 1.774-0.074 0.918 0.303 2.105 0.795 2.572 0.217 0.206 0.478 0.21 0.643 0.21 0.573 0 0.835-0.477 1.123-1.041 0.353-0.692 0.666-1.497 0.666-1.497s-0.393 2.174 0.678 2.174c0.39 0 0.783-0.506 0.958-0.764 0.001 0.003 0.001 0.004 0.001 0.004s0.011-0.017 0.030-0.050c0.040-0.062 0.063-0.102 0.063-0.102s0.001-0.004 0.002-0.012c0.157-0.273 0.505-0.893 1.026-1.918 0.674-1.323 1.32-2.981 1.32-2.981s0.060 0.405 0.257 1.076c0.116 0.394 0.362 0.83 0.556 1.248-0.157 0.217-0.253 0.341-0.253 0.341s0 0.003 0.003 0.006c-0.125 0.166-0.265 0.345-0.412 0.52-0.532 0.634-1.166 1.358-1.251 1.567-0.1 0.246-0.076 0.427 0.117 0.573 0.142 0.106 0.392 0.123 0.655 0.105 0.479-0.032 0.814-0.151 0.98-0.223 0.259-0.091 0.561-0.235 0.843-0.444 0.522-0.384 0.837-0.933 0.806-1.66-0.017-0.401-0.145-0.798-0.306-1.173 0.047-0.068 0.095-0.137 0.142-0.206 0.823-1.203 1.462-2.525 1.462-2.525s0.060 0.405 0.257 1.076c0.099 0.339 0.296 0.709 0.474 1.072-0.774 0.629-1.253 1.36-1.42 1.838-0.308 0.887-0.067 1.288 0.386 1.38 0.205 0.041 0.495-0.053 0.712-0.145 0.271-0.090 0.596-0.239 0.901-0.463 0.522-0.384 1.024-0.921 0.994-1.648-0.014-0.331-0.104-0.66-0.226-0.975 0.656-0.273 1.505-0.425 2.587-0.299 2.32 0.271 2.776 1.72 2.689 2.326s-0.573 0.94-0.737 1.041c-0.163 0.101-0.212 0.136-0.199 0.21 0.020 0.108 0.095 0.105 0.234 0.081 0.191-0.032 1.218-0.493 1.262-1.613 0.055-1.424-1.306-2.985-3.718-2.972zM8.075 23.526c-0.769 0.838-1.842 1.155-2.303 0.889-0.497-0.288-0.3-1.523 0.643-2.413 0.575-0.542 1.317-1.042 1.809-1.349 0.112-0.067 0.277-0.166 0.476-0.286 0.034-0.019 0.052-0.029 0.052-0.029l-0.001-0.001c0.039-0.023 0.078-0.047 0.119-0.072 0.344 1.266 0.011 2.381-0.796 3.261zM13.676 19.719c-0.268 0.652-0.828 2.322-1.169 2.233-0.293-0.077-0.471-1.346-0.058-2.596 0.207-0.629 0.652-1.38 0.912-1.672 0.419-0.47 0.881-0.623 0.994-0.433 0.142 0.242-0.511 2.058-0.679 2.467zM18.302 21.927c-0.113 0.059-0.218 0.096-0.265 0.068-0.036-0.021 0.047-0.099 0.047-0.099s0.579-0.623 0.806-0.906c0.133-0.165 0.286-0.361 0.454-0.579 0.001 0.022 0.002 0.044 0.002 0.065-0.001 0.745-0.721 1.248-1.043 1.451zM21.866 21.113c-0.085-0.060-0.070-0.255 0.208-0.861 0.109-0.238 0.359-0.639 0.792-1.023 0.050 0.157 0.081 0.308 0.080 0.45-0.006 0.939-0.675 1.289-1.080 1.434z " fill="url(#sassGradient)"></path>
</symbol>
<symbol id="icon-tailwindcss" viewBox="0 0 32 32">
<path fill="#00acc1" style="fill: var(--color15, #00acc1)" d="M16 6.403c-4.267 0-6.933 2.133-8 6.398 1.6-2.133 3.467-2.932 5.6-2.399 1.217 0.304 2.087 1.187 3.051 2.165 1.568 1.591 3.383 3.434 7.349 3.434 4.267 0 6.933-2.133 8-6.399-1.6 2.133-3.467 2.933-5.6 2.4-1.217-0.304-2.087-1.187-3.050-2.165-1.569-1.592-3.385-3.434-7.35-3.434v0zM8 16c-4.267 0-6.933 2.133-8 6.399 1.6-2.133 3.467-2.933 5.6-2.399 1.217 0.305 2.087 1.187 3.050 2.164 1.569 1.592 3.385 3.435 7.35 3.435 4.267 0 6.933-2.133 8-6.399-1.6 2.133-3.467 2.933-5.6 2.399-1.217-0.304-2.087-1.187-3.051-2.164-1.568-1.592-3.383-3.435-7.349-3.435v0z"></path>
</symbol>
</defs>
</svg>
